<svg id="Layer_1" data-name="Layer 1" xmlns="http://www.w3.org/2000/svg" viewBox="0 0 612 279.03"><defs><style>.cls-1{fill:#cca1ff;}.cls-1,.cls-2,.cls-3,.cls-4{stroke:#000;stroke-miterlimit:10;}.cls-1,.cls-3,.cls-4{stroke-width:2px;}.cls-3{fill:#d170f9;}.cls-4{fill:#e7ccff;}.cls-5{fill:#0c0c0c;}.cls-6{fill:#70dbfe;}.cls-7{fill:#221f1f;}.cls-8{fill:#e783ff;}.cls-9{fill:#ffba40;}</style></defs><path class="cls-1" d="M79.79,16h10.6a4.78,4.78,0,0,1,4.78,4.78v87.05a0,0,0,0,1,0,0H74.66a0,0,0,0,1,0,0V21.11A5.13,5.13,0,0,1,79.79,16Z" transform="translate(23.02 146.81) rotate(-90)"/><path class="cls-2" d="M49,76A13.86,13.86,0,0,1,35.11,62.16V60.94A13.2,13.2,0,0,1,48.3,47.75h86.42V76H49Zm78-20.5H48.3a5.41,5.41,0,0,0-5.41,5.4v1.22A6.11,6.11,0,0,0,49,68.26h78Z"/><path class="cls-3" d="M90.59-.24h10.6A4.78,4.78,0,0,1,106,4.54V72.26a0,0,0,0,1,0,0H85.46a0,0,0,0,1,0,0V4.89A5.13,5.13,0,0,1,90.59-.24Z" transform="translate(59.7 131.72) rotate(-90)"/><path class="cls-2" d="M134.72,52.69H68.32A13.89,13.89,0,0,1,54.44,38.81V37.59A13.2,13.2,0,0,1,67.63,24.4h67.09ZM67.63,32.18a5.41,5.41,0,0,0-5.4,5.41v1.22a6.09,6.09,0,0,0,6.09,6.09h58.62V32.18Z"/><path class="cls-3" d="M65.61,72.72h1.84a9.15,9.15,0,0,1,9.15,9.15v56.34a4.38,4.38,0,0,1-4.38,4.38H60.48a4.38,4.38,0,0,1-4.38-4.38v-56A9.51,9.51,0,0,1,65.61,72.72Z" transform="translate(-41.31 174.01) rotate(-90)"/><path class="cls-2" d="M37.3,121.8c-5.39,0-9.78-6.22-9.78-13.87v-1.22c0-7.28,4.17-13.2,9.3-13.2h66.24V121.8Zm65.76-20.5H39.3c-2.2,0-4,2.43-4,5.41v1.22c0,3.35,2,6.09,4.5,6.09h63.25Z"/><path class="cls-4" d="M66.9,26h10.6a4.78,4.78,0,0,1,4.78,4.78V143.66a0,0,0,0,1,0,0H61.77a0,0,0,0,1,0,0V31.17A5.13,5.13,0,0,1,66.9,26Z" transform="translate(-12.83 156.87) rotate(-90)"/><path class="cls-2" d="M134.72,99H23.19A13.9,13.9,0,0,1,9.31,85.12V83.9A13.2,13.2,0,0,1,22.5,70.71H134.72Zm-7.78-20.51H22.5a5.41,5.41,0,0,0-5.4,5.41v1.22a6.09,6.09,0,0,0,6.09,6.09H126.94Z"/><path class="cls-5" d="M29.79,91.41q1-5.05,9.22-5.92c-3.42-.36-5.66-1.28-6.74-2.76a10.73,10.73,0,0,1-2-4.43q-1.32,5.76-8.74,6.91Q27.91,86.19,29.79,91.41Z"/><path d="M183.94,137.89c-12.2,12.34-32.94,5.89-37.15-10.09l8-12.75c.84-.85-.42-1.69-1.26-1.27l-23.69,24.11a22,22,0,0,1-31.68,0,22.27,22.27,0,0,1,0-32.1L152.68,51a22.42,22.42,0,0,1,38.26,16.12l15-15.28a23.59,23.59,0,0,1,17-7.57,22.7,22.7,0,0,1,22.57,22.43v55.36a22.55,22.55,0,0,1-22.57,22.57c-10.37,0-19.48-7.15-21.58-16.82l8.27-12.75c.42-.85-.7-1.69-1.54-1.27Z"/><path d="M222.9,154.35a32.19,32.19,0,0,1-27-14.64l-5,5A31.19,31.19,0,0,1,160.24,153a32.37,32.37,0,0,1-18.58-13.23l-4.89,5a32.1,32.1,0,0,1-23,9.64,31.48,31.48,0,0,1-22.54-9.57,32,32,0,0,1,.11-46l54.4-54.68a32,32,0,0,1,45.46,0,32.64,32.64,0,0,1,3.95,4.79L199,45a33.24,33.24,0,0,1,23.9-10.48,32.26,32.26,0,0,1,32.3,32.16v55.36A32.34,32.34,0,0,1,222.9,154.35ZM212.15,129a12.71,12.71,0,0,0,10.75,5.9,12.85,12.85,0,0,0,12.84-12.84V66.69A12.94,12.94,0,0,0,222.9,54a14.05,14.05,0,0,0-10,4.61L181.21,90.92V67.11a12.82,12.82,0,0,0-3.74-9.24,12.52,12.52,0,0,0-17.91,0l-54.51,54.79a12.65,12.65,0,0,0-4,9.18,12.52,12.52,0,0,0,3.88,9.06l.21.22a12.19,12.19,0,0,0,8.75,3.77h0a12.52,12.52,0,0,0,9-3.82l24.82-25.26,1.45-.73a10.94,10.94,0,0,1,13.66,3.33,10.38,10.38,0,0,1-.08,12.26l-5.05,8.06a13.2,13.2,0,0,0,7.57,5.44A11.91,11.91,0,0,0,177,131.05l0,0,25.23-25.22,1.41-.71a10.89,10.89,0,0,1,12.59,2.07,10.61,10.61,0,0,1,2,12.25l-.54.94Z"/><path d="M249.66,97.52V67.39a22.64,22.64,0,0,1,22.57-22.57,22.38,22.38,0,0,1,22.15,22.57V94.86a3.39,3.39,0,0,0,3.08,3.5c1.68,0,3.08-1.82,3.08-3.5V67.39a22.65,22.65,0,0,1,22.57-22.57c11.91,0,22.15,10.23,22.15,22.57V97.52c0,26.08-21.73,47.8-47.8,47.8A48.13,48.13,0,0,1,249.66,97.52Z"/><path d="M297.46,155.06a57.6,57.6,0,0,1-57.53-57.54V67.39a32.34,32.34,0,0,1,32.3-32.3A31.68,31.68,0,0,1,297.5,47.72a32.26,32.26,0,0,1,25.61-12.63c17.28,0,31.88,14.79,31.88,32.3V97.52C355,128.71,328.64,155.06,297.46,155.06ZM272.23,54.55a12.85,12.85,0,0,0-12.84,12.84V97.52c0,20.64,17.44,38.07,38.07,38.07s38.06-17.43,38.06-38.07V67.39c0-6.84-5.8-12.84-12.41-12.84a12.85,12.85,0,0,0-12.83,12.84V94.86c0,7.18-5.87,13.24-12.82,13.24a13,13,0,0,1-12.82-13.24V67.39A12.65,12.65,0,0,0,272.23,54.55Z"/><path d="M428.23,83.65a37,37,0,0,0-15.7-4.49c-1.12,0-1.54,1.54-.42,1.82,37.42,8.55,34.2,63.5-10.23,63.5h-30.7c-11.92,0-22.29-12.47-22.29-22.43,0-7.57,2.67-13.17,8.83-17.66a36,36,0,0,0,19.35,5.47.92.92,0,0,0,.28-1.82,32.22,32.22,0,0,1-11.64-3.65C338.24,90,344.55,44.26,385.06,44.68h30.41c12.48,0,22.71,9.81,22.71,22.15C438.18,74.12,434.82,80.28,428.23,83.65Z"/><path d="M401.88,154.21h-30.7c-17.74,0-32-17.59-32-32.16,0-8.44,2.66-15.55,7.93-21.21a41.33,41.33,0,0,1-6.57-34.51c4.82-19.12,22.06-31.39,44-31.39h30.93c17.89,0,32.44,14.3,32.44,31.88a28,28,0,0,1-8.47,20.7A42.2,42.2,0,0,1,447.36,117C445.28,135.52,430.4,154.21,401.88,154.21Zm-42.13-37.87a12.37,12.37,0,0,0-1.13,5.71c0,4.67,6.21,12.7,12.56,12.7h30.7c17.62,0,25.05-10.3,26.14-19.93,1.11-9.81-4-21.14-18.08-24.35l-.2,0A10.58,10.58,0,0,1,401.8,78.9a10.8,10.8,0,0,1,10.73-9.47l.73,0a49.74,49.74,0,0,1,13.67,2.88,9.38,9.38,0,0,0,1.52-5.51c0-6.85-5.82-12.42-13-12.42H385.06c-13.41-.14-23,6.1-25.67,16.68-2,8,.48,19.18,10.76,24.64,4,2,6.47,2.5,7.89,2.6l1.4.1,1.32.49a10.65,10.65,0,0,1-3.69,20.67A47.84,47.84,0,0,1,359.75,116.34Z"/><path d="M442.38,121.77V67.11a22,22,0,0,1,22.14-22c12.76,0,22.57,9.81,22.57,22v54.66a22.36,22.36,0,1,1-44.71,0Z"/><path d="M464.52,153.93a32.05,32.05,0,0,1-31.88-32.16V67.11a31.85,31.85,0,0,1,31.88-31.74c18.12,0,32.3,13.94,32.3,31.74v54.66A32.26,32.26,0,0,1,464.52,153.93Zm0-99.1a12.21,12.21,0,0,0-12.41,12.28v54.66a12.63,12.63,0,1,0,25.25,0V67.11C477.36,60.22,471.72,54.83,464.52,54.83Z"/><path d="M560.82,44.68c13,0,23.69,11.21,23.69,23.83A23.67,23.67,0,0,1,560.82,92.2c-7,0-12.48-3.23-16.68-3.23a5.57,5.57,0,0,0-5.47,5.47,5.31,5.31,0,0,0,5.47,5c4.2,0,9.67-3.23,16.68-3.23,13,0,23.69,11.22,23.69,24.39a24,24,0,0,1-23.69,23.69H540.49c-26.91,0-48.92-23.41-48.92-49.9,0-27.75,22.29-49.34,49.62-49.76Z"/><path d="M560.82,154.07H540.49c-31.79,0-58.65-27.3-58.65-59.63,0-32.85,26-59,59.2-59.49h19.78c18.11,0,33.42,15.37,33.42,33.56A33.37,33.37,0,0,1,582,94.31a34.37,34.37,0,0,1,12.2,26.34C594.24,138.77,578.93,154.07,560.82,154.07ZM541.19,54.41c-22.3.35-39.89,17.93-39.89,40,0,21.77,17.95,40.17,39.19,40.17h20.33a14.32,14.32,0,0,0,13.95-14c0-7.94-6.39-14.65-13.95-14.65a27.36,27.36,0,0,0-7.67,1.51,31.31,31.31,0,0,1-9,1.71,15,15,0,0,1-15.2-14.78,15.21,15.21,0,0,1,15.2-15.2,31.31,31.31,0,0,1,9,1.71,27.36,27.36,0,0,0,7.67,1.51,14,14,0,0,0,13.95-13.95,14.39,14.39,0,0,0-13.95-14.1Z"/><path d="M49.94,233.79V179a22.36,22.36,0,0,1,44.71,0l-.28,32.66h4.91c29.15,0,29.15,44.86,0,44.86H72.64C59.61,256.5,49.52,246.69,49.94,233.79Z"/><path d="M99.28,266.23H72.64a32.62,32.62,0,0,1-23.7-9.79,31.23,31.23,0,0,1-8.74-22.79V179a32.09,32.09,0,0,1,64.18,0l-.2,23.28c13.95,2.06,26.7,12.89,26.7,31.8C130.88,255.19,115,266.23,99.28,266.23Zm-27.06-99.8A12.57,12.57,0,0,0,59.67,179v55.12a11.77,11.77,0,0,0,3.27,8.79,13.32,13.32,0,0,0,9.71,3.87H99.28c11.54,0,12.13-10.58,12.13-12.7s-.59-12.69-12.13-12.69H84.55l.37-42.48A12.63,12.63,0,0,0,72.22,166.43Z"/><path d="M146.65,156.84h36.58c17.66,0,27.47,20.18,18.36,34.34-4.48,7.29-11.07,9.81-19.48,10.09-1,0-1,1.4,0,1.82,7.71,1,15.28-.7,20.89-6.58,3.78,8.27,2.38,19.06-3.79,25.23-4.2,4.62-9.81,6.3-15.7,7-1,0-1,1.68,0,1.68,7.29.7,14.58-.7,19.77-6.87,1.4,2.38,2.1,4.9,2.1,10.79,0,8.69-6.59,22.15-22.15,22.15H146.37a22.22,22.22,0,0,1-22.29-22.15V179.41C124.08,166.93,133.47,156.84,146.65,156.84Z"/><path d="M183.23,266.23H146.37a32,32,0,0,1-32-31.88V179.41a32,32,0,0,1,32.3-32.3h36.58a31,31,0,0,1,27.52,16.46,32.38,32.38,0,0,1,1.15,29,34.09,34.09,0,0,1,.26,26.92c2.14,4,3,8.15,3,14.85C215.11,247.59,205.22,266.23,183.23,266.23Zm-36.58-99.66a12.42,12.42,0,0,0-12.84,12.84v54.94a12.5,12.5,0,0,0,12.56,12.42h36.86a11.53,11.53,0,0,0,11.15-7.21,38.69,38.69,0,0,1-11.58.58A10.55,10.55,0,0,1,173,229.59a10.73,10.73,0,0,1,2.24-6.56,10.37,10.37,0,0,1,7.33-4c4.65-.58,7.47-1.74,9.4-3.86l.32-.34a9.34,9.34,0,0,0,1.81-2.65,37.92,37.92,0,0,1-13.26.55l-1.35-.17-1.25-.54a10.91,10.91,0,0,1-6.42-12.16,10.35,10.35,0,0,1,10-8.34c6.88-.24,9.48-2.27,11.44-5.46l.11-.17a12.82,12.82,0,0,0,.25-13,11.76,11.76,0,0,0-10.43-6.33Z"/><path d="M267.43,227l-7.7,13.18c2.15,9.39,9.09,16.4,19.45,16.4,10.1,0,19.95-9.81,19.95-22V179.17c0-8.41-3.92-15.7-10.1-19.2-8.21-5.47-18.95-3.36-25.13,4.63l-48,54a23.66,23.66,0,0,0,0,31,18.74,18.74,0,0,0,28.41,0l21.85-23.69C266.8,225,267.81,225.85,267.43,227Z"/><path d="M279.18,266.28a28.54,28.54,0,0,1-24.64-13.46l-3.06,3.32a28.47,28.47,0,0,1-42.8-.09,33.36,33.36,0,0,1-.05-43.94l47.79-53.76c9.35-11.78,25.44-14.63,37.71-6.67,9.1,5.31,14.73,15.81,14.73,27.49v55.37C308.86,251.75,295.27,266.28,279.18,266.28Zm-8.83-25a9.27,9.27,0,0,0,8.83,5.56c4.62,0,10.21-5.48,10.21-12.28V179.17c0-4.74-2-8.95-5.16-10.73l-.6-.37c-3.86-2.57-8.93-1.53-12,2.49l-.42.5-48,54a13.84,13.84,0,0,0-.05,18,9,9,0,0,0,14,0l21.76-23.59A10.39,10.39,0,0,1,271.58,217a10.8,10.8,0,0,1,5.08,13.11l-.32.95Z"/><path d="M358,157h19.48c12.34,0,22.43,9.67,22.43,21.44a21.59,21.59,0,0,1-15.56,21.31c-.84,0-.84.42-.84.7,0,.7,0,.7.84,1.12a22,22,0,0,1,15.14,21.17v11.77c0,11.22-10.93,21.87-22,21.87h-19.9a50.16,50.16,0,0,1-50.46-50C307.13,178.42,330.25,157,358,157Zm-.7,60.13c2.38-6.59,6.73-11.91,13-14.58a.85.85,0,0,0-.28-1.68H361c-3.64,0-5.61,2.38-5.61,5.89v10.09A1,1,0,0,0,357.31,217.11Z"/><path d="M377.49,266.09h-19.9c-33.19,0-60.2-26.81-60.2-59.77,0-32.58,27.19-59.08,60.62-59.08h19.48c17.73,0,32.16,14,32.16,31.18a31.8,31.8,0,0,1-8.9,22.44,32.44,32.44,0,0,1,8.48,21.86v11.77C409.23,251,394.1,266.09,377.49,266.09ZM358,166.71c-23.08,0-41.15,17.4-41.15,39.61s18.27,40.31,40.73,40.31h19.9c5.85,0,12.28-6.35,12.28-12.14V222.72c0-5.49-3.4-10.37-8.26-11.86l-.78-.24-.72-.36a13.82,13.82,0,0,1-2.1-1.29,10.63,10.63,0,0,1-4.08,2.66c-4.14,1.89-6.29,5.8-7.37,8.79l-.45,1a10.8,10.8,0,0,1-12.16,5.77,10.65,10.65,0,0,1-8.24-10.4V206.74c0-9.05,6.45-15.62,15.34-15.62h9.11a10.67,10.67,0,0,1,6.46,2.17,10.3,10.3,0,0,1,5.66-3.09c5.1-1.84,8-6.09,8-11.78,0-6.35-5.82-11.71-12.7-11.71Z"/><path d="M403.7,209.68V179.55A22.64,22.64,0,0,1,426.26,157a22.37,22.37,0,0,1,22.15,22.57V207a3.39,3.39,0,0,0,3.08,3.5c1.69,0,3.09-1.82,3.09-3.5V179.55A22.64,22.64,0,0,1,477.14,157c11.92,0,22.15,10.23,22.15,22.57v30.13c0,26.07-21.72,47.8-47.8,47.8A48.13,48.13,0,0,1,403.7,209.68Z"/><path d="M451.49,267.21A57.59,57.59,0,0,1,394,209.68V179.55a32.35,32.35,0,0,1,32.3-32.31,31.73,31.73,0,0,1,25.28,12.64,32.26,32.26,0,0,1,25.6-12.64c17.29,0,31.88,14.8,31.88,32.31v30.13C509,240.87,482.68,267.21,451.49,267.21Zm-25.23-100.5a12.85,12.85,0,0,0-12.83,12.84v30.13c0,20.64,17.43,38.07,38.06,38.07s38.07-17.43,38.07-38.07V179.55c0-6.84-5.8-12.84-12.42-12.84a12.85,12.85,0,0,0-12.83,12.84V207c0,7.17-5.87,13.24-12.82,13.24A13,13,0,0,1,438.68,207V179.55A12.65,12.65,0,0,0,426.26,166.71Z"/><path d="M525.77,156.84h36.59c17.66,0,27.47,20.18,18.36,34.34-4.49,7.29-11.07,9.81-19.48,10.09-1,0-1,1.4,0,1.82,7.71,1,15.28-.7,20.88-6.58,3.79,8.27,2.39,19.06-3.78,25.23-4.21,4.62-9.81,6.3-15.7,7-1,0-1,1.68,0,1.68,7.29.7,14.58-.7,19.76-6.87,1.4,2.38,2.11,4.9,2.11,10.79,0,8.69-6.59,22.15-22.15,22.15H525.49a22.22,22.22,0,0,1-22.28-22.15V179.41C503.21,166.93,512.6,156.84,525.77,156.84Z"/><path d="M562.36,266.23H525.49a32,32,0,0,1-32-31.88V179.41a32,32,0,0,1,32.3-32.3h36.59a31,31,0,0,1,27.52,16.47,32.39,32.39,0,0,1,1.15,29,34.13,34.13,0,0,1,.25,26.92c2.15,4,3,8.15,3,14.85C594.24,247.59,584.35,266.23,562.36,266.23Zm-36.59-99.66a12.42,12.42,0,0,0-12.83,12.84v54.94a12.5,12.5,0,0,0,12.55,12.42h36.87a11.54,11.54,0,0,0,11.15-7.21,38.76,38.76,0,0,1-11.59.58,10.55,10.55,0,0,1-9.75-10.55A10.72,10.72,0,0,1,554.4,223a10.41,10.41,0,0,1,7.33-4c4.66-.58,7.48-1.74,9.4-3.86l.32-.34a9,9,0,0,0,1.81-2.65,37.85,37.85,0,0,1-13.25.55l-1.35-.17L557.4,212A10.93,10.93,0,0,1,551,199.88a10.37,10.37,0,0,1,10-8.34c6.87-.24,9.48-2.27,11.44-5.46l.1-.17a12.79,12.79,0,0,0,.26-13,11.76,11.76,0,0,0-10.43-6.33Z"/><path d="M161.48,126.54c-13.06,13.22-35.28,6.31-39.78-10.8l8.55-13.67c.9-.9-.45-1.8-1.35-1.35l-25.37,25.82a23.57,23.57,0,0,1-33.93,0,23.85,23.85,0,0,1,0-34.37L128,33.47a24,24,0,0,1,41,17.26l16.06-16.36a25.23,25.23,0,0,1,18.16-8.11,24.32,24.32,0,0,1,24.17,24v59.3a24.16,24.16,0,0,1-24.17,24.17c-11.11,0-20.86-7.66-23.12-18L189,102.07c.45-.9-.75-1.8-1.65-1.35Z"/><path d="M86.52,143.48h-.14a33,33,0,0,1-23.66-10,33.57,33.57,0,0,1,.11-48.25L121.1,26.6a33.77,33.77,0,0,1,52.32,5.72l4.68-4.77a35,35,0,0,1,25.11-11,33.87,33.87,0,0,1,33.91,33.75v59.3a33.88,33.88,0,0,1-62.72,17.8l-6,6A32.78,32.78,0,0,1,136.27,142a34.07,34.07,0,0,1-20-14.6l-5.84,5.94A33.41,33.41,0,0,1,86.52,143.48ZM145,36.11a14.16,14.16,0,0,0-10.08,4.24L76.5,99A14.25,14.25,0,0,0,72,109.36a14.09,14.09,0,0,0,4.36,10.19l.21.22A13.79,13.79,0,0,0,86.46,124a14,14,0,0,0,10.13-4.3l26.5-27,1.45-.73a11,11,0,0,1,13.77,3.34,10.46,10.46,0,0,1-.1,12.35l-5.64,9a14.5,14.5,0,0,0,8.73,6.5,13.45,13.45,0,0,0,13.26-3.52l0,0,26.93-26.93,1.41-.71a11,11,0,0,1,12.68,2.08,10.68,10.68,0,0,1,2,12.33l-.54.94L190.88,117a14.31,14.31,0,0,0,12.33,7,14.46,14.46,0,0,0,14.44-14.44V50.28A14.56,14.56,0,0,0,203.21,36,15.67,15.67,0,0,0,192,41.14l-32.79,33.4V50.73a14.42,14.42,0,0,0-4.2-10.38A14.19,14.19,0,0,0,145,36.11Z"/><path d="M231.57,79.53V49.39a22.65,22.65,0,0,1,22.57-22.57,22.37,22.37,0,0,1,22.15,22.57V76.86c0,1.68,1.26,3.51,3.08,3.51s3.09-1.83,3.09-3.51V49.39A22.64,22.64,0,0,1,305,26.82c11.92,0,22.15,10.23,22.15,22.57V79.53c0,26.07-21.73,47.79-47.8,47.79A48.13,48.13,0,0,1,231.57,79.53Z"/><path d="M279.37,137.06a57.6,57.6,0,0,1-57.53-57.53V49.39a32.34,32.34,0,0,1,32.3-32.3,31.72,31.72,0,0,1,25.28,12.63A32.25,32.25,0,0,1,305,17.09c17.29,0,31.88,14.79,31.88,32.3V79.53C336.9,110.71,310.56,137.06,279.37,137.06ZM254.14,36.56a12.84,12.84,0,0,0-12.83,12.83V79.53c0,20.63,17.43,38.06,38.06,38.06s38.07-17.43,38.07-38.06V49.39c0-6.84-5.8-12.83-12.42-12.83a12.84,12.84,0,0,0-12.83,12.83V76.86c0,7.18-5.87,13.24-12.82,13.24a13,13,0,0,1-12.81-13.24V49.39A12.64,12.64,0,0,0,254.14,36.56Z"/><path d="M410.14,65.65a37.09,37.09,0,0,0-15.7-4.49c-1.12,0-1.54,1.55-.42,1.83,37.43,8.55,34.2,63.49-10.23,63.49h-30.7c-11.91,0-22.29-12.47-22.29-22.42,0-7.57,2.67-13.18,8.84-17.67C345.1,90,352.39,91.86,359,91.86a.92.92,0,0,0,.28-1.82,32,32,0,0,1-11.64-3.65C320.15,72,326.46,26.26,367,26.68h30.42c12.47,0,22.7,9.81,22.7,22.15C420.09,56.12,416.73,62.29,410.14,65.65Z"/><path d="M383.79,136.22h-30.7c-17.73,0-32-17.6-32-32.16,0-8.44,2.67-15.55,7.94-21.22a41.34,41.34,0,0,1-6.58-34.51C327.3,29,344.78,16.65,367.07,17h30.32c17.88,0,32.44,14.3,32.44,31.88a28,28,0,0,1-8.48,20.71A42.24,42.24,0,0,1,429.28,99C427.19,117.53,412.31,136.22,383.79,136.22ZM341.66,98.34a12.39,12.39,0,0,0-1.12,5.72c0,4.66,6.2,12.69,12.55,12.69h30.7c17.62,0,25.06-10.29,26.14-19.93C411,87,405.88,75.68,391.85,72.47l-.19,0a10.59,10.59,0,0,1-8-11.53,10.81,10.81,0,0,1,10.73-9.47l.73,0a49.81,49.81,0,0,1,13.68,2.88,9.43,9.43,0,0,0,1.51-5.51c0-6.85-5.82-12.41-13-12.41H367c-13.39-.13-23,6.09-25.66,16.67-2,8,.47,19.18,10.76,24.64,3.95,2,6.46,2.5,7.88,2.6l1.41.1,1.31.49A10.65,10.65,0,0,1,359,101.59,47.92,47.92,0,0,1,341.66,98.34Z"/><path d="M424.29,103.78V49.11a22,22,0,0,1,22.15-22c12.75,0,22.56,9.81,22.56,22v54.67a22.36,22.36,0,1,1-44.71,0Z"/><path d="M446.44,135.94a32.06,32.06,0,0,1-31.88-32.16V49.11a31.85,31.85,0,0,1,31.88-31.74c18.11,0,32.3,13.94,32.3,31.74v54.67A32.27,32.27,0,0,1,446.44,135.94Zm0-99.1A12.22,12.22,0,0,0,434,49.11v54.67a12.63,12.63,0,1,0,25.25,0V49.11C459.27,42.23,453.63,36.84,446.44,36.84Z"/><path d="M542.73,26.68c13,0,23.69,11.22,23.69,23.83A23.66,23.66,0,0,1,542.73,74.2c-7,0-12.48-3.22-16.68-3.22a5.57,5.57,0,0,0-5.47,5.46,5.31,5.31,0,0,0,5.47,5c4.2,0,9.67-3.23,16.68-3.23,13,0,23.69,11.22,23.69,24.39a24,24,0,0,1-23.69,23.69H522.4c-26.91,0-48.92-23.41-48.92-49.9,0-27.75,22.29-49.34,49.63-49.76Z"/><path d="M542.73,136.08H522.4c-31.79,0-58.65-27.31-58.65-59.64,0-32.85,26-59,59.21-59.49h19.77c18.12,0,33.42,15.37,33.42,33.56A33.34,33.34,0,0,1,564,76.31a34.35,34.35,0,0,1,12.2,26.34C576.15,120.77,560.85,136.08,542.73,136.08ZM523.11,36.42c-22.31.34-39.89,17.92-39.89,40,0,21.78,17.94,40.17,39.18,40.17h20.33a14.33,14.33,0,0,0,14-14c0-7.94-6.4-14.65-14-14.65a27.1,27.1,0,0,0-7.67,1.52,31.58,31.58,0,0,1-9,1.7,15,15,0,0,1-15.2-14.78,15.22,15.22,0,0,1,15.2-15.2,31.25,31.25,0,0,1,9,1.71,27.45,27.45,0,0,0,7.67,1.52,14,14,0,0,0,14-14,14.39,14.39,0,0,0-14-14.09Z"/><path d="M31.85,212.76V150.63c0-13.83,9.95-25.27,22.29-25.27s22.42,11.44,22.42,25.27l-.28,37h4.91c29.16,0,29.16,50.85,0,50.85H54.56C41.52,238.5,31.43,227.38,31.85,212.76Z"/><path d="M81.19,248.23H54.56a31.42,31.42,0,0,1-22.7-9.6,35.53,35.53,0,0,1-9.74-26v-62c0-19.3,14.36-35,32-35s32.16,15.7,32.16,35l-.21,27.68c13.94,2.25,26.7,14.09,26.7,34.77a38.57,38.57,0,0,1-7.47,23.39A29.67,29.67,0,0,1,81.19,248.23Zm-27-113.13c-6.81,0-12.56,7.11-12.56,15.53V213a16.3,16.3,0,0,0,4.25,12,11.92,11.92,0,0,0,8.73,3.7H81.19c4.51,0,12.13-3.31,12.13-15.69s-7.62-15.69-12.13-15.69H66.48l.35-46.84C66.83,142.06,61.14,135.1,54.14,135.1Z"/><path d="M128.56,138.84h36.58c17.67,0,27.48,20.18,18.37,34.34C179,180.47,172.43,183,164,183.27c-1,0-1,1.41,0,1.83,7.71,1,15.28-.7,20.89-6.59,3.78,8.27,2.38,19.06-3.79,25.23-4.2,4.62-9.81,6.31-15.7,7-1,0-1,1.68,0,1.68,7.29.7,14.58-.7,19.77-6.87,1.4,2.38,2.1,4.91,2.1,10.79,0,8.69-6.59,22.15-22.15,22.15H128.28A22.22,22.22,0,0,1,106,216.35V161.41C106,148.93,115.38,138.84,128.56,138.84Z"/><path d="M165.14,248.23H128.28a32,32,0,0,1-32-31.88V161.41a32,32,0,0,1,32.3-32.3h36.58a31,31,0,0,1,27.52,16.47,32.33,32.33,0,0,1,1.15,29,34.09,34.09,0,0,1,.26,26.92c2.14,4,3,8.15,3,14.85C197,229.59,187.13,248.23,165.14,248.23Zm-36.58-99.66a12.41,12.41,0,0,0-12.83,12.84v54.94a12.5,12.5,0,0,0,12.55,12.42h36.86a11.52,11.52,0,0,0,11.15-7.21,38.67,38.67,0,0,1-11.58.58A10.54,10.54,0,0,1,155,211.59a10.74,10.74,0,0,1,2.23-6.56,10.39,10.39,0,0,1,7.33-4c4.66-.58,7.48-1.74,9.4-3.86l.32-.33a9.28,9.28,0,0,0,1.81-2.65,38.14,38.14,0,0,1-13.26.54l-1.35-.17-1.25-.54a10.9,10.9,0,0,1-6.42-12.15,10.36,10.36,0,0,1,10-8.35c6.88-.24,9.48-2.27,11.45-5.46l.1-.17a12.77,12.77,0,0,0,.25-13,11.74,11.74,0,0,0-10.43-6.33Z"/><path d="M249.35,209l-7.71,13.18c2.15,9.39,9.09,16.4,19.45,16.4,10.1,0,20-9.81,20-22V161.18c0-8.41-3.91-15.7-10.1-19.21-8.21-5.46-18.94-3.36-25.13,4.63l-48,54a23.64,23.64,0,0,0,0,31,18.74,18.74,0,0,0,28.41,0l21.84-23.69C248.71,207,249.72,207.85,249.35,209Z"/><path d="M261.09,248.28a28.54,28.54,0,0,1-24.64-13.46l-3.06,3.32A28.56,28.56,0,0,1,212,247.79h0a28.65,28.65,0,0,1-21.44-9.73c-11-12.24-11-31.55-.05-43.95l47.8-53.75c9.34-11.79,25.43-14.64,37.7-6.68,9.1,5.31,14.73,15.81,14.73,27.5v55.36C290.77,233.75,277.18,248.28,261.09,248.28Zm-8.82-25a9.26,9.26,0,0,0,8.82,5.56c4.63,0,10.22-5.48,10.22-12.28V161.18c0-4.75-2-9-5.17-10.74l-.6-.37c-3.86-2.57-8.92-1.53-12,2.49l-.43.51-48,54a13.85,13.85,0,0,0,0,18A9,9,0,0,0,219,225l21.75-23.59A10.38,10.38,0,0,1,253.49,199a10.81,10.81,0,0,1,5.08,13.12l-.32.94Z"/><path d="M339.92,139H359.4c12.34,0,22.43,9.67,22.43,21.45a21.59,21.59,0,0,1-15.56,21.3c-.84,0-.84.42-.84.7,0,.7,0,.7.84,1.12a22,22,0,0,1,15.14,21.17v11.77c0,11.22-10.93,21.87-22,21.87H339.5a50.16,50.16,0,0,1-50.46-50C289,160.43,312.17,139,339.92,139Zm-.7,60.13c2.38-6.58,6.73-11.91,13-14.57a.86.86,0,0,0-.28-1.69h-9.12c-3.64,0-5.6,2.39-5.6,5.89v10.09A1,1,0,0,0,339.22,199.11Z"/><path d="M359.4,248.09H339.5c-33.19,0-60.19-26.81-60.19-59.77,0-32.57,27.19-59.07,60.61-59.07H359.4c17.74,0,32.17,14,32.17,31.18a31.8,31.8,0,0,1-8.91,22.44,32.41,32.41,0,0,1,8.49,21.85v11.77C391.15,233,376,248.09,359.4,248.09Zm-19.48-99.38c-23.07,0-41.15,17.4-41.15,39.61S317,228.63,339.5,228.63h19.9c5.86,0,12.28-6.35,12.28-12.14V204.72c0-5.49-3.4-10.37-8.26-11.86l-.77-.24-.73-.36a13.52,13.52,0,0,1-2.1-1.29,10.56,10.56,0,0,1-4.08,2.66c-4.13,1.89-6.29,5.8-7.37,8.79l-.44,1.05a10.81,10.81,0,0,1-12.16,5.76,10.65,10.65,0,0,1-8.25-10.4V188.74c0-9.05,6.46-15.62,15.35-15.62H352a10.64,10.64,0,0,1,6.45,2.17,10.33,10.33,0,0,1,5.66-3.09c5.1-1.84,8-6.09,8-11.77,0-6.35-5.81-11.72-12.7-11.72Z"/><path d="M385.61,191.68V161.55A22.64,22.64,0,0,1,408.18,139a22.37,22.37,0,0,1,22.14,22.57V189a3.4,3.4,0,0,0,3.09,3.51c1.68,0,3.08-1.83,3.08-3.51V161.55A22.64,22.64,0,0,1,459.06,139c11.91,0,22.14,10.23,22.14,22.57v30.13c0,26.08-21.72,47.8-47.79,47.8A48.12,48.12,0,0,1,385.61,191.68Z"/><path d="M433.41,249.22a57.59,57.59,0,0,1-57.53-57.54V161.55a32.33,32.33,0,0,1,32.3-32.3,31.68,31.68,0,0,1,25.27,12.63,32.26,32.26,0,0,1,25.61-12.63c17.28,0,31.88,14.79,31.88,32.3v30.13C490.94,222.87,464.59,249.22,433.41,249.22ZM408.18,148.71a12.85,12.85,0,0,0-12.84,12.84v30.13c0,20.64,17.43,38.07,38.07,38.07s38.06-17.43,38.06-38.07V161.55c0-6.84-5.8-12.84-12.41-12.84a12.85,12.85,0,0,0-12.84,12.84V189c0,7.18-5.87,13.24-12.81,13.24A13,13,0,0,1,420.59,189V161.55A12.65,12.65,0,0,0,408.18,148.71Z"/><path d="M507.69,138.84h36.58c17.66,0,27.47,20.18,18.36,34.34-4.48,7.29-11.07,9.81-19.48,10.09-1,0-1,1.41,0,1.83,7.71,1,15.28-.7,20.88-6.59,3.79,8.27,2.39,19.06-3.78,25.23-4.2,4.62-9.81,6.31-15.7,7-1,0-1,1.68,0,1.68,7.29.7,14.58-.7,19.77-6.87,1.4,2.38,2.1,4.91,2.1,10.79,0,8.69-6.59,22.15-22.15,22.15H507.41a22.22,22.22,0,0,1-22.29-22.15V161.41C485.12,148.93,494.51,138.84,507.69,138.84Z"/><path d="M544.27,248.23H507.41a32,32,0,0,1-32-31.88V161.41a32,32,0,0,1,32.3-32.3h36.58a31,31,0,0,1,27.52,16.47,32.33,32.33,0,0,1,1.15,29,34.09,34.09,0,0,1,.26,26.92c2.14,4,2.95,8.15,2.95,14.85C576.15,229.59,566.26,248.23,544.27,248.23Zm-36.58-99.66a12.42,12.42,0,0,0-12.84,12.84v54.94a12.5,12.5,0,0,0,12.56,12.42h36.86a11.53,11.53,0,0,0,11.15-7.21,38.67,38.67,0,0,1-11.58.58,10.55,10.55,0,0,1-9.76-10.55,10.75,10.75,0,0,1,2.24-6.56,10.37,10.37,0,0,1,7.33-4c4.65-.58,7.47-1.74,9.4-3.86l.32-.33a9.49,9.49,0,0,0,1.81-2.65,38.17,38.17,0,0,1-13.26.54l-1.35-.17-1.25-.54a10.9,10.9,0,0,1-6.42-12.15,10.35,10.35,0,0,1,10-8.35c6.88-.24,9.48-2.27,11.44-5.46l.11-.17a12.82,12.82,0,0,0,.25-13,11.76,11.76,0,0,0-10.43-6.33Z"/><path class="cls-6" d="M408.47,64.81a36.94,36.94,0,0,0-15.7-4.49c-1.12,0-1.54,1.54-.42,1.82,37.43,8.56,34.21,63.5-10.23,63.5h-30.7c-11.91,0-22.28-12.47-22.28-22.43,0-7.56,2.66-13.17,8.83-17.66C343.43,89.2,350.72,91,357.31,91a.92.92,0,0,0,.28-1.82A32,32,0,0,1,346,85.55c-27.48-14.43-21.17-60.13,19.34-59.71h30.42c12.47,0,22.71,9.81,22.71,22.15C418.43,55.28,415.06,61.44,408.47,64.81Z"/><path class="cls-6" d="M422.62,102.93V48.27a22,22,0,0,1,22.15-22c12.75,0,22.57,9.81,22.57,22v54.66a22.36,22.36,0,1,1-44.72,0Z"/><path class="cls-6" d="M542.73,26.68c13,0,23.69,11.22,23.69,23.83A23.66,23.66,0,0,1,542.73,74.2c-7,0-12.48-3.22-16.68-3.22a5.57,5.57,0,0,0-5.47,5.46,5.31,5.31,0,0,0,5.47,5c4.2,0,9.67-3.23,16.68-3.23,13,0,23.69,11.22,23.69,24.39a24,24,0,0,1-23.69,23.69H522.4c-26.91,0-48.92-23.41-48.92-49.9,0-27.75,22.29-49.34,49.63-49.76Z"/><path class="cls-6" d="M30.28,212.36V151.31c0-13.58,9.93-24.83,22.23-24.83s22.36,11.25,22.36,24.83l-.28,36.38h4.89c29.08,0,29.08,50,0,50H52.93C39.93,237.66,29.86,226.73,30.28,212.36Z"/><path class="cls-6" d="M126.89,138h36.59c17.66,0,27.47,20.18,18.36,34.34-4.49,7.29-11.07,9.81-19.49,10.09-1,0-1,1.4,0,1.82,7.71,1,15.28-.7,20.89-6.58,3.79,8.27,2.38,19.06-3.78,25.23-4.21,4.62-9.82,6.31-15.7,7-1,0-1,1.68,0,1.68,7.29.7,14.57-.7,19.76-6.87,1.4,2.38,2.1,4.91,2.1,10.79,0,8.69-6.58,22.15-22.14,22.15H126.61a22.23,22.23,0,0,1-22.29-22.15V160.57A22.12,22.12,0,0,1,126.89,138Z"/><path class="cls-6" d="M247.68,208.13,240,221.31c2.15,9.39,9.1,16.4,19.45,16.4,10.1,0,19.95-9.81,19.95-22V160.34c0-8.41-3.91-15.7-10.1-19.21-8.21-5.47-18.94-3.36-25.13,4.63l-48,54a23.64,23.64,0,0,0,0,31,18.74,18.74,0,0,0,28.41,0L246.42,207C247.05,206.17,248.06,207,247.68,208.13Z"/><path class="cls-6" d="M338.25,138.14h19.49c12.33,0,22.42,9.67,22.42,21.45a21.58,21.58,0,0,1-15.55,21.3c-.84,0-.84.42-.84.7,0,.7,0,.7.84,1.12a22,22,0,0,1,15.13,21.17v11.77c0,11.22-10.93,21.87-22,21.87H337.83a50.16,50.16,0,0,1-50.46-50C287.37,159.59,310.5,138.14,338.25,138.14Zm-.7,60.13c2.39-6.59,6.73-11.91,13-14.58a.85.85,0,0,0-.28-1.68H341.2c-3.65,0-5.61,2.39-5.61,5.89V198A1,1,0,0,0,337.55,198.27Z"/><path class="cls-6" d="M383.94,190.84V160.71a22.64,22.64,0,0,1,22.57-22.57,22.38,22.38,0,0,1,22.15,22.57v27.47a3.39,3.39,0,0,0,3.08,3.5c1.68,0,3.08-1.82,3.08-3.5V160.71a22.64,22.64,0,0,1,22.57-22.57c11.91,0,22.15,10.23,22.15,22.57v30.13c0,26.08-21.73,47.8-47.8,47.8A48.13,48.13,0,0,1,383.94,190.84Z"/><path class="cls-6" d="M506,138H542.6c17.66,0,27.48,20.18,18.37,34.34-4.49,7.29-11.08,9.81-19.49,10.09-1,0-1,1.4,0,1.82,7.71,1,15.28-.7,20.89-6.58,3.78,8.27,2.38,19.06-3.79,25.23-4.2,4.62-9.81,6.31-15.7,7-1,0-1,1.68,0,1.68,7.29.7,14.58-.7,19.77-6.87,1.4,2.38,2.1,4.91,2.1,10.79,0,8.69-6.59,22.15-22.15,22.15H505.74a22.22,22.22,0,0,1-22.29-22.15V160.57C483.45,148.09,492.84,138,506,138Z"/><path class="cls-6" d="M231.57,77.65V47.51a22.65,22.65,0,0,1,22.57-22.57,22.38,22.38,0,0,1,22.15,22.57V75a3.39,3.39,0,0,0,3.08,3.5c1.68,0,3.09-1.82,3.09-3.5V47.51A22.65,22.65,0,0,1,305,24.94c11.92,0,22.15,10.24,22.15,22.57V77.65c0,26.07-21.73,47.8-47.8,47.8A48.14,48.14,0,0,1,231.57,77.65Z"/><polygon points="183.94 137.89 196.75 169.75 210.13 177.9 231.57 151.82 203.67 133.75 183.94 137.89"/><path class="cls-7" d="M350.3,181.91s6.68-.43,15.49-1.47l.13,2.15s-4.72-.48-16.44,1.42Z"/><polygon points="82.66 138.98 80.49 155.82 97.15 165.4 103.06 146.93 82.66 138.98"/><path class="cls-8" d="M99,247.47q5.66,1.31,9.57-5.65-1.3,4.78.44,7.18a13.45,13.45,0,0,0,3.91,3.69q-6.53-1.31-10.44,4.79A9.48,9.48,0,0,0,99,247.47Z"/><path class="cls-8" d="M94.23,239.48q-2.16,4.36,1.31,8.7-3.92-3-8.27,0,2.63-3.48-1.74-7.83C89,242.09,91.92,241.81,94.23,239.48Z"/><path class="cls-8" d="M78.89,147.41c2.9,1.45,5.37,1.89,7.4,1.3a12,12,0,0,0,5.22-3q-2.19,3.48-1.09,6.3a14.05,14.05,0,0,0,3.26,5q-6.53-2.61-10.87,1.74Q85.42,152.63,78.89,147.41Z"/><path class="cls-8" d="M215,134.63c2.9,2,5.8,2.33,8.7.87q-3.92,3.92-1.3,7.83-3.49-3.48-8.27,0Q217.62,139.42,215,134.63Z"/><path class="cls-8" d="M584.51,247.66c-6.68,0-11.31,2.9-13.93,8.7q0-9.13-11.74-12.62"/><path class="cls-8" d="M558.84,243.74q6.52.45,10-2.39a14.35,14.35,0,0,0,4.79-7.61q.43,11.31,10.88,13.92"/><path class="cls-8" d="M550.14,248.78c2.89,2,5.8,2.33,8.7.87q-3.92,3.91-1.31,7.83-3.48-3.48-8.26,0Q552.75,253.57,550.14,248.78Z"/><path class="cls-8" d="M382,225q5.77,4.05,11.56,1.15-5.21,5.2-1.74,10.41-4.64-4.62-11,0Q385.44,231.4,382,225Z"/><path class="cls-8" d="M389.62,239.48c2.9,2,5.8,2.33,8.7.87q-3.92,3.92-1.3,7.83-3.5-3.48-8.27,0C391.07,245.57,391.36,242.68,389.62,239.48Z"/><path class="cls-8" d="M332,243.83c2.9,2,5.8,2.33,8.7.87q-3.92,3.92-1.3,7.83-3.5-3.47-8.27,0C333.43,249.92,333.72,247,332,243.83Z"/><path class="cls-8" d="M231.57,251.82a5.22,5.22,0,0,0-5.17,3.23q0-3.39-4.36-4.68"/><path class="cls-8" d="M222,250.37a5.18,5.18,0,0,0,3.72-.89,5.38,5.38,0,0,0,1.78-2.83c.1,2.81,1.45,4.53,4,5.17"/><path class="cls-8" d="M569.52,84.75A5.21,5.21,0,0,0,564.35,88q0-3.4-4.37-4.69"/><path class="cls-8" d="M560,83.3a5.18,5.18,0,0,0,3.72-.89,5.38,5.38,0,0,0,1.78-2.83q.15,4.22,4,5.17"/><path class="cls-8" d="M335.88,81a5.21,5.21,0,0,0-5.17,3.24c0-2.27-1.46-3.83-4.36-4.69"/><path class="cls-8" d="M326.35,79.52a5.17,5.17,0,0,0,3.71-.89,5.39,5.39,0,0,0,1.78-2.82q.15,4.2,4,5.16"/><path class="cls-8" d="M242.35,239.63q-6.06,0-8.43,5.27,0-5.53-7.11-7.64"/><path class="cls-8" d="M226.81,237.26c2.63.18,4.65-.31,6.06-1.45a8.72,8.72,0,0,0,2.9-4.61q.25,6.86,6.58,8.43"/><path class="cls-8" d="M249.38,132.51q-10,0-13.92,8.7,0-9.14-11.75-12.61"/><path class="cls-8" d="M223.71,128.6q6.53.43,10-2.4a14.34,14.34,0,0,0,4.78-7.61q.44,11.31,10.88,13.92"/><path class="cls-8" d="M299.64,122.32c2.9,2,5.8,2.33,8.7.87q-3.91,3.91-1.3,7.83-3.5-3.48-8.27,0C301.09,128.41,301.38,125.52,299.64,122.32Z"/><path class="cls-6" d="M161.61,124.33c-13.16,13.31-35.56,6.35-40.09-10.89l8.62-13.77c.91-.91-.45-1.82-1.36-1.36l-25.57,26a23.76,23.76,0,0,1-34.19,0,24,24,0,0,1,0-34.65l58.85-59.15a24.21,24.21,0,0,1,41.3,17.39l16.19-16.49a25.49,25.49,0,0,1,18.31-8.17A24.51,24.51,0,0,1,228,47.47v59.76a24.34,24.34,0,0,1-24.36,24.36c-11.2,0-21-7.71-23.3-18.15l8.93-13.77c.45-.91-.76-1.82-1.67-1.36Z"/><path d="M187.25,86.56A25.5,25.5,0,1,1,171.69,54,25.53,25.53,0,0,1,187.25,86.56Zm-20.11,7.93c.57-3.28,1.12-6.3,1.61-9.33a1.5,1.5,0,0,1,.95-1.29c2.58-1.14,5.13-2.34,7.69-3.52.28-.13.55-.28.93-.47-2.89-1.53-5.62-3-8.39-4.41a1.41,1.41,0,0,1-.87-1.23c-.22-2.14-.49-4.27-.74-6.4-.12-1-.24-1.93-.38-3.1-2.07,2-4.09,3.8-5.88,5.78a3.33,3.33,0,0,1-3.78,1c-2.56-.65-5.19-1.06-7.92-1.6.18.41.3.7.44,1,1.06,2.16,2,4.37,3.22,6.46a3.18,3.18,0,0,1-.13,3.74c-1.44,2.26-2.65,4.66-4,7.15l1.08-.11c2.29-.32,4.6-.53,6.84-1a3.51,3.51,0,0,1,4,1.43C163.36,90.61,165.23,92.42,167.14,94.49Z"/><path class="cls-9" d="M167.14,94.49c-1.91-2.07-3.78-3.88-5.39-5.9a3.51,3.51,0,0,0-4-1.43c-2.24.49-4.55.7-6.84,1l-1.08.11c1.4-2.49,2.61-4.89,4-7.15A3.18,3.18,0,0,0,154,77.4c-1.19-2.09-2.16-4.3-3.22-6.46-.14-.28-.26-.57-.44-1,2.73.54,5.36,1,7.92,1.6a3.33,3.33,0,0,0,3.78-1c1.79-2,3.81-3.76,5.88-5.78.14,1.17.26,2.13.38,3.1.25,2.13.52,4.26.74,6.4a1.41,1.41,0,0,0,.87,1.23c2.77,1.42,5.5,2.88,8.39,4.41-.38.19-.65.34-.93.47-2.56,1.18-5.11,2.38-7.69,3.52a1.5,1.5,0,0,0-.95,1.29C168.26,88.19,167.71,91.21,167.14,94.49Z"/><path d="M152.62,54.76s-.18-19.5-20.93-30.8c0,0,10.25-5.38,23.64-.38,0,0,9.18,18.71,7.09,31L173.54,57S189.68,22.89,208.1,20.4L224,22.46s-26.69,10.61-45.55,38.63Z"/></svg>